HIERARCHY
ROOT hip
{
  OFFSET 0 0 0
  CHANNELS 6 Xposition Yposition Zposition Zrotation Yrotation Xrotation
  JOINT abdomen
  {
    OFFSET 0 20.6881 -0.73152
    CHANNELS 3 Zrotation Xrotation Yrotation
    JOINT chest
    {
      OFFSET 0 11.7043 -0.48768
      CHANNELS 3 Zrotation Xrotation Yrotation
      JOINT neck
      {
        OFFSET 0 22.1894 -2.19456
        CHANNELS 3 Zrotation Xrotation Yrotation
        JOINT head
        {
          OFFSET -0.24384 7.07133 1.2192
          CHANNELS 3 Zrotation Xrotation Yrotation
          JOINT leftEye
          {
            OFFSET 4.14528 8.04674 8.04672
            CHANNELS 3 Zrotation Xrotation Yrotation
            End Site
            {
              OFFSET 1 0 0
            }
          }
          JOINT rightEye
          {
            OFFSET -3.6576 8.04674 8.04672
            CHANNELS 3 Zrotation Xrotation Yrotation
            End Site
            {
              OFFSET 1 0 0
            }
          }
        }
      }
      JOINT rCollar
      {
        OFFSET -2.68224 19.2634 -4.8768
        CHANNELS 3 Zrotation Xrotation Yrotation
        JOINT rShldr
        {
          OFFSET -8.77824 -1.95073 1.46304
          CHANNELS 3 Zrotation Xrotation Yrotation
          JOINT rForeArm
          {
            OFFSET -28.1742 -1.7115 0.48768
            CHANNELS 3 Zrotation Xrotation Yrotation
            JOINT rHand
            {
              OFFSET -22.5879 0.773209 7.07136
              CHANNELS 3 Zrotation Xrotation Yrotation
              JOINT rThumb1
              {
                OFFSET -1.2192 -0.487915 3.41376
                CHANNELS 3 Zrotation Xrotation Yrotation
                JOINT rThumb2
                {
                  OFFSET -3.37035 -0.52449 3.41376
                  CHANNELS 3 Zrotation Xrotation Yrotation
                  End Site
                  {
                    OFFSET -1.78271 -1.18214 1.43049
                  }
                }
              }
              JOINT rIndex1
              {
                OFFSET -7.75947 0.938293 5.60832
                CHANNELS 3 Zrotation Xrotation Yrotation
                JOINT rIndex2
                {
                  OFFSET -2.54057 -0.884171 1.56538
                  CHANNELS 3 Zrotation Xrotation Yrotation
                  End Site
                  {
                    OFFSET -1.62519 -0.234802 1.16502
                  }
                }
              }
              JOINT rMid1
              {
                OFFSET -8.24714 1.18213 3.41376
                CHANNELS 3 Zrotation Xrotation Yrotation
                JOINT rMid2
                {
                  OFFSET -3.10165 -0.590103 1.0647
                  CHANNELS 3 Zrotation Xrotation Yrotation
                  End Site
                  {
                    OFFSET -2.48547 -0.328903 0.83742
                  }
                }
              }
              JOINT rRing1
              {
                OFFSET -8.82822 0.546677 1.51678
                CHANNELS 3 Zrotation Xrotation Yrotation
                JOINT rRing2
                {
                  OFFSET -2.60934 -0.819778 -0.0198488
                  CHANNELS 3 Zrotation Xrotation Yrotation
                  End Site
                  {
                    OFFSET -2.33842 -0.294052 0.168128
                  }
                }
              }
              JOINT rPinky1
              {
                OFFSET -8.27202 -0.0477905 -0.4584
                CHANNELS 3 Zrotation Xrotation Yrotation
                JOINT rPinky2
                {
                  OFFSET -1.82734 -0.647385 -0.700984
                  CHANNELS 3 Zrotation Xrotation Yrotation
                  End Site
                  {
                    OFFSET -1.69225 -0.51767 -0.607171
                  }
                }
              }
            }
          }
        }
      }
      JOINT lCollar
      {
        OFFSET 2.68224 19.2634 -4.8768
        CHANNELS 3 Zrotation Xrotation Yrotation
        JOINT lShldr
        {
          OFFSET 8.77824 -1.95073 1.46304
          CHANNELS 3 Zrotation Xrotation Yrotation
          JOINT lForeArm
          {
            OFFSET 28.1742 -1.7115 0.48768
            CHANNELS 3 Zrotation Xrotation Yrotation
            JOINT lHand
            {
              OFFSET 22.5879 0.773209 7.07136
              CHANNELS 3 Zrotation Xrotation Yrotation
              JOINT lThumb1
              {
                OFFSET 1.2192 -0.487915 3.41376
                CHANNELS 3 Zrotation Xrotation Yrotation
                JOINT lThumb2
                {
                  OFFSET 3.37035 -0.52449 3.41376
                  CHANNELS 3 Zrotation Xrotation Yrotation
                  End Site
                  {
                    OFFSET 1.78271 -1.18214 1.43049
                  }
                }
              }
              JOINT lIndex1
              {
                OFFSET 7.75947 0.938293 5.60832
                CHANNELS 3 Zrotation Xrotation Yrotation
                JOINT lIndex2
                {
                  OFFSET 2.54057 -0.884171 1.56538
                  CHANNELS 3 Zrotation Xrotation Yrotation
                  End Site
                  {
                    OFFSET 1.62519 -0.234802 1.16502
                  }
                }
              }
              JOINT lMid1
              {
                OFFSET 8.24714 1.18213 3.41376
                CHANNELS 3 Zrotation Xrotation Yrotation
                JOINT lMid2
                {
                  OFFSET 3.10165 -0.590103 1.0647
                  CHANNELS 3 Zrotation Xrotation Yrotation
                  End Site
                  {
                    OFFSET 2.48547 -0.328903 0.83742
                  }
                }
              }
              JOINT lRing1
              {
                OFFSET 8.82822 0.546677 1.51678
                CHANNELS 3 Zrotation Xrotation Yrotation
                JOINT lRing2
                {
                  OFFSET 2.60934 -0.819778 -0.0198488
                  CHANNELS 3 Zrotation Xrotation Yrotation
                  End Site
                  {
                    OFFSET 2.33842 -0.294052 0.168128
                  }
                }
              }
              JOINT lPinky1
              {
                OFFSET 8.27202 -0.0477905 -0.4584
                CHANNELS 3 Zrotation Xrotation Yrotation
                JOINT lPinky2
                {
                  OFFSET 1.82734 -0.647385 -0.700984
                  CHANNELS 3 Zrotation Xrotation Yrotation
                  End Site
                  {
                    OFFSET 1.69225 -0.51767 -0.607171
                  }
                }
              }
            }
          }
        }
      }
    }
  }
  JOINT rButtock
  {
    OFFSET -8.77824 4.35084 1.2192
    CHANNELS 3 Zrotation Xrotation Yrotation
    JOINT rThigh
    {
      OFFSET 0 -1.70687 -2.19456
      CHANNELS 3 Zrotation Xrotation Yrotation
      JOINT rShin
      {
        OFFSET 0 -36.8199 0.73152
        CHANNELS 3 Zrotation Xrotation Yrotation
        JOINT rFoot
        {
          OFFSET 0.73152 -45.1104 -5.12064
          CHANNELS 3 Zrotation Xrotation Yrotation
          End Site
          {
            OFFSET -1.1221 -3.69964 12.103
          }
        }
      }
    }
  }
  JOINT lButtock
  {
    OFFSET 8.77824 4.35084 1.2192
    CHANNELS 3 Zrotation Xrotation Yrotation
    JOINT lThigh
    {
      OFFSET 0 -1.70687 -2.19456
      CHANNELS 3 Zrotation Xrotation Yrotation
      JOINT lShin
      {
        OFFSET 0 -36.8199 0.73152
        CHANNELS 3 Zrotation Xrotation Yrotation
        JOINT lFoot
        {
          OFFSET -0.73152 -45.1104 -5.12064
          CHANNELS 3 Zrotation Xrotation Yrotation
          End Site
          {
            OFFSET 1.1221 -3.69964 12.103
          }
        }
      }
    }
  }
}
MOTION
Frames:	4
Frame Time:	0.00833333
-138.628 83.2755 -3.99591 -8.1866 85.5415 -6.696 -1.74623 6.52413 4.94583 -0.741017 1.41598 1.4745 7.24482 4.57308 4.97538 -4.56437 -17.8208 7.73751 -0.0 0.0 0.0 -0.0 0.0 0.0 -2.69876e-14 -1.80246e-12 -4.81059e-14 81.7224 32.8463 4.40425 -13.704 -6.71811 24.9605 -0.390836 -17.4972 -2.53931 6.72741e-10 1.87252e-10 -1.83346e-10 1.16686e-09 3.21265e-10 -3.09787e-10 6.72743e-10 1.87253e-10 -1.83359e-10 7.73091 5.47488 0.417314 6.72741e-10 1.87255e-10 -1.83346e-10 2.90554 0.965183 0.102902 6.72752e-10 1.87255e-10 -1.83352e-10 10.2786 0.731801 0.0259123 6.72736e-10 1.87256e-10 -1.83353e-10 2.22167 -0.733487 -0.20892 -2.70836e-14 -1.80245e-12 -4.85035e-14 -78.5497 34.9964 2.33625 13.9722 -6.93201 -25.4982 0.000117982 -0.310152 0.0435894 3.70169e-10 -2.50341e-10 -2.18819e-10 6.38804e-10 -4.33513e-10 -3.78388e-10 3.70162e-10 -2.50342e-10 -2.18816e-10 -7.73091 5.47488 -0.417314 3.70164e-10 -2.50341e-10 -2.18819e-10 -2.90554 0.965183 -0.102902 3.70161e-10 -2.50344e-10 -2.18818e-10 -10.2786 0.731801 -0.0259123 3.70172e-10 -2.50345e-10 -2.18822e-10 -2.22167 -0.733487 0.20892 -2.03217e-16 0.0 -3.88251e-19 7.42611 -13.259 15.9263 -0.144159 33.6281 0.968396 -19.7247 -25.3946 -34.9525 2.03217e-16 0.0 3.88251e-19 -6.30256 -13.9195 -16.3783 0.19423 34.5203 -0.906933 13.8319 -24.4058 25.8024
-138.43 83.2199 -4.04957 -10.148 85.2059 -8.5079 -1.76726 6.53792 5.0517 -0.752263 1.44752 1.50606 7.28164 4.50821 5.00724 -4.76286 -17.9675 7.74842 -0.0 0.0 0.0 -0.0 0.0 0.0 -1.22676e-14 -1.18232e-12 -3.2893e-14 81.5346 33.7028 5.25672 -13.7151 -6.72423 24.9884 -0.383599 -17.3114 -2.51106 7.42953e-10 1.2895e-11 -4.38341e-10 1.28993e-09 1.96929e-11 -7.49154e-10 7.42954e-10 1.28966e-11 -4.38353e-10 7.73091 5.47488 0.417314 7.42953e-10 1.28984e-11 -4.38339e-10 2.90554 0.965183 0.102902 7.42964e-10 1.28988e-11 -4.38345e-10 10.2786 0.731801 0.0259123 7.42946e-10 1.28996e-11 -4.38342e-10 2.22167 -0.733487 -0.20892 -1.23328e-14 -1.18231e-12 -3.32211e-14 -78.9603 35.1883 2.95831 13.9527 -6.91595 -25.4595 -4.89145e-05 -0.571248 0.0802792 2.70598e-10 -2.56339e-10 1.85194e-10 4.6709e-10 -4.43714e-10 3.20251e-10 2.70592e-10 -2.56339e-10 1.85197e-10 -7.73091 5.47488 -0.417314 2.70594e-10 -2.56339e-10 1.85193e-10 -2.90554 0.965183 -0.102902 2.70591e-10 -2.56341e-10 1.85194e-10 -10.2786 0.731801 -0.0259123 2.70601e-10 -2.56342e-10 1.8519e-10 -2.22167 -0.733487 0.20892 -2.03217e-16 0.0 -3.88251e-19 7.3864 -13.3996 15.7944 -0.145055 33.6733 0.964528 -19.6142 -25.2773 -34.8896 2.03217e-16 0.0 3.88251e-19 -6.27087 -13.9867 -16.2265 0.194823 34.5992 -0.913577 13.93 -24.8146 25.6933
-138.248 83.1595 -4.16034 -9.9538 84.8937 -7.9951 -1.73738 6.50079 5.17437 -0.808648 1.50077 1.54415 7.34782 4.39928 5.04122 -4.96054 -18.0621 7.75395 -0.0 0.0 0.0 -0.0 0.0 0.0 1.02444e-14 3.35e-13 1.32036e-14 81.3838 34.6468 6.07454 -13.8291 -6.81219 25.2221 -0.384734 -17.3135 -2.51174 8.13232e-10 -4.0262e-10 -5.77626e-10 1.41025e-09 -7.00507e-10 -9.87572e-10 8.13232e-10 -4.02617e-10 -5.77636e-10 7.73091 5.47488 0.417314 8.13231e-10 -4.02616e-10 -5.77621e-10 2.90554 0.965183 0.102902 8.13241e-10 -4.02616e-10 -5.77627e-10 10.2786 0.731801 0.0259123 8.13224e-10 -4.02615e-10 -5.77619e-10 2.22167 -0.733487 -0.20892 1.02311e-14 3.35002e-13 1.29831e-14 -79.3973 35.3959 3.6657 13.9533 -6.91622 -25.4614 0.000601344 -1.04144 0.146368 1.54321e-10 -2.35946e-10 7.34146e-10 2.66729e-10 -4.08397e-10 1.26936e-09 1.54316e-10 -2.35946e-10 7.34149e-10 -7.73091 5.47488 -0.417314 1.54318e-10 -2.35946e-10 7.34143e-10 -2.90554 0.965183 -0.102902 1.54314e-10 -2.35947e-10 7.34144e-10 -10.2786 0.731801 -0.0259123 1.54325e-10 -2.35946e-10 7.34139e-10 -2.22167 -0.733487 0.20892 -2.03217e-16 0.0 -3.88251e-19 7.40224 -13.5592 15.7082 -0.14561 33.7059 0.960704 -19.5387 -25.1125 -34.9192 2.03217e-16 0.0 3.88251e-19 -6.20727 -14.0995 -16.094 0.19582 34.6991 -0.920378 13.999 -25.2798 25.5018
-138.008 83.0994 -4.28426 -11.1819 85.0483 -8.9689 -1.69389 6.44938 5.29223 -0.873839 1.55676 1.58116 7.41581 4.28433 5.07552 -5.15272 -18.1431 7.76015 -0.0 0.0 0.0 -0.0 0.0 0.0 3.04245e-14 1.84869e-12 6.02523e-14 81.238 35.6129 6.82538 -14.0295 -6.97328 25.6243 -0.394815 -17.5369 -2.54618 8.28832e-10 -8.28097e-10 -6.2395e-10 1.43491e-09 -1.43814e-09 -1.06594e-09 8.28831e-10 -8.28094e-10 -6.23958e-10 7.73091 5.47488 0.417314 8.2883e-10 -8.28094e-10 -6.23941e-10 2.90554 0.965183 0.102902 8.28839e-10 -8.28094e-10 -6.23948e-10 10.2786 0.731801 0.0259123 8.28822e-10 -8.28093e-10 -6.23935e-10 2.22167 -0.733487 -0.20892 3.04553e-14 1.84869e-12 6.01378e-14 -79.8964 35.604 4.46066 13.9797 -6.93747 -25.5142 0.00253177 -1.56561 0.220077 3.15666e-11 -2.13669e-10 1.20098e-09 5.52044e-11 -3.69926e-10 2.07641e-09 3.15624e-11 -2.13669e-10 1.20098e-09 -7.73091 5.47488 -0.417314 3.15637e-11 -2.13669e-10 1.20097e-09 -2.90554 0.965183 -0.102902 3.15595e-11 -2.1367e-10 1.20097e-09 -10.2786 0.731801 -0.0259123 3.15708e-11 -2.13667e-10 1.20097e-09 -2.22167 -0.733487 0.20892 -2.03217e-16 0.0 -3.88251e-19 7.43978 -13.7062 15.6536 -0.146184 33.7469 0.957986 -19.496 -24.9703 -34.9792 2.03217e-16 0.0 3.88251e-19 -6.13792 -14.2014 -15.976 0.196763 34.7938 -0.927005 14.0617 -25.7574 25.299
